<svg width="55" height="44" viewBox="0 0 55 44" fill="none" xmlns="http://www.w3.org/2000/svg">
<path d="M16.86 43.36C13.62 43.36 10.74 42.52 8.22 40.84C5.7 39.12 3.72 36.68 2.28 33.52C0.84 30.32 0.12 26.48 0.12 22C0.12 17.52 0.84 13.7 2.28 10.54C3.72 7.34 5.7 4.9 8.22 3.22C10.74 1.5 13.62 0.639998 16.86 0.639998C20.1 0.639998 22.98 1.5 25.5 3.22C28.02 4.9 30 7.34 31.44 10.54C32.92 13.7 33.66 17.52 33.66 22C33.66 26.48 32.92 30.32 31.44 33.52C30 36.68 28.02 39.12 25.5 40.84C22.98 42.52 20.1 43.36 16.86 43.36ZM16.86 39.4C19.34 39.4 21.5 38.74 23.34 37.42C25.18 36.06 26.62 34.1 27.66 31.54C28.7 28.94 29.22 25.76 29.22 22C29.22 18.24 28.7 15.08 27.66 12.52C26.62 9.92 25.18 7.96 23.34 6.64C21.5 5.28 19.34 4.6 16.86 4.6C14.46 4.6 12.32 5.28 10.44 6.64C8.56 7.96 7.1 9.92 6.06 12.52C5.02 15.08 4.5 18.24 4.5 22C4.5 25.76 5.02 28.94 6.06 31.54C7.1 34.1 8.56 36.06 10.44 37.42C12.32 38.74 14.46 39.4 16.86 39.4ZM50.1666 43V2.8L52.0866 4.84H40.2666V0.999997H54.4866V43H50.1666Z" fill="#FF7A00" fill-opacity="0.5"/>
</svg>
