<svg width="125" height="85" viewBox="0 0 125 85" fill="none" xmlns="http://www.w3.org/2000/svg">
<path d="M5.75341 84.6156C4.7404 84.6156 3.75793 84.4813 2.80597 84.2132C1.86619 83.9326 1.10952 83.5731 0.535889 83.1341L1.54278 80.9029C2.09199 81.3052 2.74493 81.6282 3.50164 81.8722C4.25834 82.1162 5.01501 82.238 5.77171 82.238C6.61384 82.238 7.23628 82.1162 7.63904 81.8722C8.04179 81.6162 8.24317 81.2807 8.24317 80.8663C8.24317 80.5616 8.12124 80.3114 7.87703 80.1164C7.64526 79.909 7.3399 79.7444 6.96167 79.6226C6.59553 79.5008 6.09513 79.3666 5.46049 79.2203C4.4841 78.9887 3.68471 78.7568 3.06227 78.5253C2.43983 78.2938 1.90281 77.9218 1.45124 77.4097C1.01187 76.8976 0.792187 76.2147 0.792187 75.3613C0.792187 74.6177 0.993565 73.9468 1.39632 73.3495C1.79908 72.7397 2.40321 72.2584 3.20872 71.9047C4.02643 71.5509 5.02112 71.3743 6.19278 71.3743C7.01037 71.3743 7.81003 71.4719 8.59101 71.6669C9.37199 71.8619 10.0556 72.1424 10.6414 72.5082L9.72604 74.7577C8.54231 74.0873 7.35821 73.7518 6.17447 73.7518C5.34454 73.7518 4.72821 73.8861 4.32545 74.1542C3.93489 74.4223 3.73963 74.776 3.73963 75.215C3.73963 75.6539 3.96543 75.9831 4.41699 76.2026C4.88078 76.41 5.58253 76.617 6.52231 76.8244C7.49881 77.056 8.29809 77.2879 8.92053 77.5194C9.54298 77.7509 10.0739 78.1167 10.5133 78.6167C10.9647 79.1168 11.1906 79.7935 11.1906 80.6468C11.1906 81.3784 10.983 82.0489 10.5682 82.6586C10.1654 83.256 9.55506 83.7315 8.73746 84.0852C7.91987 84.4389 6.92506 84.6156 5.75341 84.6156ZM22.5721 81.6527H16.6223L15.4873 84.3961H12.4483L18.1601 71.5937H21.0893L26.8194 84.3961H23.7072L22.5721 81.6527ZM21.6385 79.4032L19.6064 74.5017L17.5743 79.4032H21.6385ZM32.0299 73.9713V77.3548H37.9614V79.7324H32.0299V84.3961H29.0642V71.5937H38.7486V73.9713H32.0299ZM51.5944 82.0185V84.3961H41.6719V71.5937H51.3564V73.9713H44.6194V76.7513H50.5691V79.0557H44.6194V82.0185H51.5944ZM66.6226 71.5937V84.3961H63.6569V79.1471H57.8352V84.3961H54.8695V71.5937H57.8352V76.6415H63.6569V71.5937H66.6226ZM76.7757 84.6156C75.4456 84.6156 74.2435 84.3292 73.1693 83.756C72.1074 83.1828 71.2715 82.3964 70.6612 81.3967C70.0633 80.3846 69.7641 79.2506 69.7641 77.9949C69.7641 76.7392 70.0633 75.6111 70.6612 74.6114C71.2715 73.5993 72.1074 72.807 73.1693 72.2339C74.2435 71.6607 75.4456 71.3743 76.7757 71.3743C78.1063 71.3743 79.3021 71.6607 80.3639 72.2339C81.4257 72.807 82.262 73.5993 82.872 74.6114C83.4824 75.6111 83.7874 76.7392 83.7874 77.9949C83.7874 79.2506 83.4824 80.3846 82.872 81.3967C82.262 82.3964 81.4257 83.1828 80.3639 83.756C79.3021 84.3292 78.1063 84.6156 76.7757 84.6156ZM76.7757 82.0917C77.5326 82.0917 78.2161 81.9208 78.8261 81.5796C79.4365 81.2259 79.9125 80.7383 80.2541 80.1164C80.6082 79.4946 80.785 78.7876 80.785 77.9949C80.785 77.2023 80.6082 76.4952 80.2541 75.8734C79.9125 75.2516 79.4365 74.7698 78.8261 74.4285C78.2161 74.0748 77.5326 73.8982 76.7757 73.8982C76.0193 73.8982 75.3357 74.0748 74.7253 74.4285C74.1154 74.7698 73.6332 75.2516 73.2791 75.8734C72.9375 76.4952 72.7665 77.2023 72.7665 77.9949C72.7665 78.7876 72.9375 79.4946 73.2791 80.1164C73.6332 80.7383 74.1154 81.2259 74.7253 81.5796C75.3357 81.9208 76.0193 82.0917 76.7757 82.0917ZM92.6253 84.6156C90.7946 84.6156 89.3666 84.1097 88.3414 83.0976C87.3283 82.0855 86.8219 80.6406 86.8219 78.7631V71.5937H89.7877V78.6533C89.7877 80.9457 90.7397 82.0917 92.6436 82.0917C93.571 82.0917 94.2792 81.8173 94.7672 81.2687C95.2553 80.7079 95.4995 79.8359 95.4995 78.6533V71.5937H98.4286V78.7631C98.4286 80.6406 97.916 82.0855 96.8908 83.0976C95.8777 84.1097 94.456 84.6156 92.6253 84.6156ZM106.485 84.6156C105.472 84.6156 104.49 84.4813 103.538 84.2132C102.598 83.9326 101.841 83.5731 101.268 83.1341L102.275 80.9029C102.824 81.3052 103.477 81.6282 104.233 81.8722C104.99 82.1162 105.747 82.238 106.504 82.238C107.346 82.238 107.968 82.1162 108.371 81.8722C108.774 81.6162 108.975 81.2807 108.975 80.8663C108.975 80.5616 108.853 80.3114 108.609 80.1164C108.377 79.909 108.072 79.7444 107.693 79.6226C107.327 79.5008 106.827 79.3666 106.192 79.2203C105.216 78.9887 104.417 78.7568 103.794 78.5253C103.172 78.2938 102.635 77.9218 102.183 77.4097C101.744 76.8976 101.524 76.2147 101.524 75.3613C101.524 74.6177 101.725 73.9468 102.128 73.3495C102.531 72.7397 103.135 72.2584 103.941 71.9047C104.758 71.5509 105.753 71.3743 106.925 71.3743C107.743 71.3743 108.542 71.4719 109.323 71.6669C110.104 71.8619 110.787 72.1424 111.373 72.5082L110.458 74.7577C109.274 74.0873 108.09 73.7518 106.906 73.7518C106.077 73.7518 105.46 73.8861 105.057 74.1542C104.667 74.4223 104.471 74.776 104.471 75.215C104.471 75.6539 104.697 75.9831 105.149 76.2026C105.613 76.41 106.315 76.617 107.254 76.8244C108.231 77.056 109.03 77.2879 109.652 77.5194C110.275 77.7509 110.806 78.1167 111.245 78.6167C111.697 79.1168 111.922 79.7935 111.922 80.6468C111.922 81.3784 111.715 82.0489 111.3 82.6586C110.897 83.256 110.287 83.7315 109.469 84.0852C108.652 84.4389 107.657 84.6156 106.485 84.6156ZM124.787 82.0185V84.3961H114.864V71.5937H124.549V73.9713H117.812V76.7513H123.762V79.0557H117.812V82.0185H124.787Z" fill="white"/>
<path fill-rule="evenodd" clip-rule="evenodd" d="M19.0625 44.5976L63.0757 0.627686L63.0804 0.632388L63.0807 0.632068L82 19.4798V7.99997H89V26.4533L107.218 44.6021L101.522 50.2923L63.084 11.9998L24.7583 50.2879L19.0625 44.5976ZM56.4102 36.1133H69.9574V59.5233H56.4102V36.1133Z" fill="white"/>
</svg>
